<svg width="217" height="48" viewBox="0 0 217 48" fill="none" xmlns="http://www.w3.org/2000/svg">
<path d="M22.3313 12.3333V17.2331H8.30843C5.95668 17.2331 4.99592 18.1939 4.99592 20.1154C4.99592 21.8907 5.76453 22.8514 8.59666 22.8514H14.5492C21.5585 22.8514 23.338 26.0679 23.338 30.007C23.338 34.5225 20.9862 37.6888 15.0295 37.6888H0.288226V32.743H15.0295C17.3813 32.743 18.3421 31.9285 18.3421 29.9568C18.3421 27.9852 17.2852 27.1247 14.7413 27.1247H8.73869C1.72936 27.1247 0 23.62 0 19.7269C0 15.1654 2.35176 12.3333 8.25831 12.3333H22.3271H22.3313Z" fill="#F3F3F3"/>
<path d="M27.8537 12.3332V6.33057H32.9917V12.3332H40.001V17.233H32.9917V29.2383C32.9917 32.0704 33.9984 33.0312 36.4003 33.0312H39.9049V37.6888H35.3434C30.1094 37.6888 27.8537 35.5751 27.8537 28.9501V17.233H24.395V12.3332H27.8537Z" fill="#F3F3F3"/>
<path d="M58.7772 12.3333C65.114 12.3333 67.612 15.888 67.612 20.6876V32.5968C67.612 36.2477 66.6512 37.6888 62.378 37.6888H50.5147C44.5121 37.6888 42.0142 34.7606 42.0142 29.9568C42.0142 25.1531 44.32 22.6593 50.5607 22.6593H62.6119V20.7378C62.6119 18.7703 61.5091 17.2331 58.7229 17.2331H43.5472V12.3333H58.7689H58.7772ZM62.6203 31.4439V26.6903H50.6651C47.975 26.6903 47.0143 27.793 47.0143 29.6686C47.0143 31.5442 48.021 32.743 50.569 32.743H61.2292C62.2359 32.743 62.6203 32.3587 62.6203 31.4481V31.4439Z" fill="#F3F3F3"/>
<path d="M89.6556 12.3333V17.2331H80.7248C78.4691 17.2331 77.4582 18.2899 77.4582 20.4997V37.693H72.3662V19.7311C72.3662 14.6391 74.2376 12.3374 79.2335 12.3374H89.6556V12.3333Z" fill="#F3F3F3"/>
<path d="M109.054 12.333C115.107 12.333 118.369 15.8878 118.369 23.1854V37.7846C118.369 44.9861 115.871 47.8224 108.766 47.8224H93.6862V42.9226H108.189C111.982 42.9226 113.231 41.4355 113.231 37.7846V36.6317H102.041C95.2693 36.6317 91.042 32.6467 91.042 24.4343C91.042 16.222 95.2693 12.333 102.041 12.333H109.05H109.054ZM102.525 32.0201H113.235V23.1352C113.235 19.004 111.652 17.2287 107.571 17.2287H102.529C98.1599 17.2287 96.1925 19.4384 96.1925 24.6223C96.1925 29.8062 98.1599 32.0159 102.529 32.0159L102.525 32.0201Z" fill="#326BFC"/>
<path d="M139.309 12.333C145.646 12.333 148.144 15.8878 148.144 20.6874V32.5966C148.144 36.2474 147.183 37.6886 142.91 37.6886H131.051C125.048 37.6886 122.55 34.7604 122.55 29.9566C122.55 25.1528 124.856 22.659 131.097 22.659H143.148V20.7375C143.148 18.7701 142.045 17.2329 139.259 17.2329H124.083V12.333H139.305H139.309ZM143.152 31.4437V26.69H131.197C128.507 26.69 127.546 27.7928 127.546 29.6684C127.546 31.5439 128.553 32.7428 131.101 32.7428H141.761C142.772 32.7428 143.152 32.3585 143.152 31.4478V31.4437Z" fill="#326BFC"/>
<path d="M170.329 12.333C174.748 12.333 176.858 14.6388 176.858 18.1435C176.858 21.2638 175.179 23.2814 172.535 24.2422L157.985 29.5263C157.121 29.8605 156.64 30.437 156.64 31.2557C156.64 32.2164 157.263 32.7929 158.562 32.7929H176.332V37.6927H158.274C153.904 37.6927 151.745 35.3869 151.745 31.8823C151.745 29.0501 153.136 26.7903 156.068 25.7376L170.667 20.5036C171.724 20.1193 172.012 19.4008 172.012 18.7283C172.012 17.7675 171.39 17.2412 170.045 17.2412H152.659V12.3414H170.329V12.333Z" fill="#326BFC"/>
<path d="M196.453 12.333C202.456 12.333 205 15.2153 205 20.1109C205 25.0066 202.648 27.4085 196.403 27.4085H184.352V29.2339C184.352 31.2515 185.455 32.7386 188.241 32.7386H203.751V37.6844H188.241C181.904 37.6844 179.406 34.1296 179.406 29.33V20.6874C179.406 15.8836 181.904 12.333 188.241 12.333H196.453ZM184.352 23.4276H196.261C198.997 23.4276 200.008 22.2747 200.008 20.4033C200.008 18.532 198.905 17.2329 196.407 17.2329H188.245C185.459 17.2329 184.356 18.7701 184.356 20.7375V23.4276H184.352Z" fill="#326BFC"/>
<path d="M209 0L211.161 5.83927L217 8L211.161 10.1607L209 16L206.839 10.1607L201 8L206.839 5.83927L209 0Z" fill="#D9D9D9"/>
</svg>
