<?xml version="1.0" encoding="UTF-8"?><svg id="Layer_1" xmlns="http://www.w3.org/2000/svg" viewBox="0 0 217 47.82"><defs><style>.cls-1{fill:#326bfc;}</style></defs><path d="m22.33,12.33v4.9h-14.02c-2.35,0-3.31.96-3.31,2.88,0,1.78.77,2.74,3.6,2.74h5.95c7.01,0,8.79,3.22,8.79,7.16,0,4.52-2.35,7.68-8.31,7.68H.29v-4.95h14.74c2.35,0,3.31-.81,3.31-2.79s-1.06-2.83-3.6-2.83h-6c-7.01,0-8.74-3.5-8.74-7.4,0-4.56,2.35-7.39,8.26-7.39h14.07Z"/><path d="m27.85,12.33v-6h5.14v6h7.01v4.9h-7.01v12.01c0,2.83,1.01,3.79,3.41,3.79h3.5v4.66h-4.56c-5.23,0-7.49-2.11-7.49-8.74v-11.72h-3.46v-4.9h3.46Z"/><path d="m58.78,12.33c6.34,0,8.83,3.55,8.83,8.35v11.91c0,3.65-.96,5.09-5.23,5.09h-11.86c-6,0-8.5-2.93-8.5-7.73s2.31-7.3,8.55-7.3h12.05v-1.92c0-1.97-1.1-3.5-3.89-3.5h-15.18v-4.9h15.23Zm3.84,19.11v-4.75h-11.96c-2.69,0-3.65,1.1-3.65,2.98s1.01,3.07,3.55,3.07h10.66c1.01,0,1.39-.38,1.39-1.29h0Z"/><path d="m89.66,12.33v4.9h-8.93c-2.26,0-3.27,1.06-3.27,3.27v17.19h-5.09v-17.96c0-5.09,1.87-7.39,6.87-7.39h10.42Z"/><path class="cls-1" d="m109.05,12.33c6.05,0,9.32,3.55,9.32,10.85v14.6c0,7.2-2.5,10.04-9.6,10.04h-15.08v-4.9h14.5c3.79,0,5.04-1.49,5.04-5.14v-1.15h-11.19c-6.77,0-11-3.98-11-12.2s4.23-12.1,11-12.1h7.01Zm-6.53,19.69h10.71v-8.88c0-4.13-1.58-5.91-5.66-5.91h-5.04c-4.37,0-6.34,2.21-6.34,7.39s1.97,7.39,6.34,7.39h0Z"/><path class="cls-1" d="m139.31,12.33c6.34,0,8.83,3.55,8.83,8.35v11.91c0,3.65-.96,5.09-5.23,5.09h-11.86c-6,0-8.5-2.93-8.5-7.73s2.31-7.3,8.55-7.3h12.05v-1.92c0-1.97-1.1-3.5-3.89-3.5h-15.18v-4.9h15.23Zm3.84,19.11v-4.75h-11.95c-2.69,0-3.65,1.1-3.65,2.98s1.01,3.07,3.56,3.07h10.66c1.01,0,1.39-.38,1.39-1.3h0Z"/><path class="cls-1" d="m170.33,12.33c4.42,0,6.53,2.31,6.53,5.81,0,3.12-1.68,5.14-4.32,6.1l-14.55,5.28c-.86.33-1.35.91-1.35,1.73,0,.96.62,1.54,1.92,1.54h17.77v4.9h-18.06c-4.37,0-6.53-2.31-6.53-5.81,0-2.83,1.39-5.09,4.32-6.14l14.6-5.23c1.06-.38,1.34-1.1,1.34-1.78,0-.96-.62-1.49-1.97-1.49h-17.39v-4.9h17.67Z"/><path class="cls-1" d="m196.45,12.33c6,0,8.55,2.88,8.55,7.78s-2.35,7.3-8.6,7.3h-12.05v1.83c0,2.02,1.1,3.5,3.89,3.5h15.51v4.95h-15.51c-6.34,0-8.83-3.55-8.83-8.35v-8.64c0-4.8,2.5-8.35,8.83-8.35h8.21Zm-12.1,11.09h11.91c2.74,0,3.75-1.15,3.75-3.02s-1.1-3.17-3.6-3.17h-8.16c-2.79,0-3.89,1.54-3.89,3.5v2.69h0Z"/><path d="m209,0l2.16,5.84,5.84,2.16-5.84,2.16-2.16,5.84-2.16-5.84-5.84-2.16,5.84-2.16,2.16-5.84Z"/></svg>