<svg width="221" height="93" viewBox="0 0 221 93" fill="none" xmlns="http://www.w3.org/2000/svg">
<path d="M22.3313 35.3333V40.2331H8.30843C5.95668 40.2331 4.99592 41.1939 4.99592 43.1154C4.99592 44.8907 5.76452 45.8514 8.59666 45.8514H14.5492C21.5585 45.8514 23.338 49.0679 23.338 53.007C23.338 57.5225 20.9862 60.6888 15.0295 60.6888H0.288226V55.743H15.0295C17.3813 55.743 18.3421 54.9285 18.3421 52.9568C18.3421 50.9852 17.2852 50.1247 14.7413 50.1247H8.73869C1.72936 50.1247 0 46.62 0 42.7269C0 38.1654 2.35176 35.3333 8.25831 35.3333H22.3271H22.3313Z" fill="#F3F3F3"/>
<path d="M27.8537 35.3332V29.3306H32.9917V35.3332H40.001V40.233H32.9917V52.2383C32.9917 55.0704 33.9984 56.0312 36.4003 56.0312H39.9049V60.6888H35.3434C30.1094 60.6888 27.8537 58.5751 27.8537 51.9501V40.233H24.395V35.3332H27.8537Z" fill="#F3F3F3"/>
<path d="M58.7772 35.3333C65.114 35.3333 67.612 38.888 67.612 43.6876V55.5968C67.612 59.2477 66.6512 60.6888 62.378 60.6888H50.5147C44.5121 60.6888 42.0142 57.7606 42.0142 52.9568C42.0142 48.1531 44.32 45.6593 50.5607 45.6593H62.6119V43.7378C62.6119 41.7703 61.5091 40.2331 58.7229 40.2331H43.5472V35.3333H58.7689H58.7772ZM62.6203 54.4439V49.6903H50.6651C47.975 49.6903 47.0143 50.793 47.0143 52.6686C47.0143 54.5442 48.021 55.743 50.569 55.743H61.2292C62.2359 55.743 62.6203 55.3587 62.6203 54.4481V54.4439Z" fill="#F3F3F3"/>
<path d="M89.6556 35.3333V40.2331H80.7248C78.4691 40.2331 77.4582 41.2899 77.4582 43.4997V60.693H72.3662V42.7311C72.3662 37.6391 74.2376 35.3374 79.2335 35.3374H89.6556V35.3333Z" fill="#F3F3F3"/>
<path d="M109.054 35.333C115.107 35.333 118.369 38.8878 118.369 46.1854V60.7846C118.369 67.9861 115.871 70.8224 108.766 70.8224H93.6862V65.9226H108.189C111.982 65.9226 113.231 64.4355 113.231 60.7846V59.6317H102.041C95.2693 59.6317 91.042 55.6467 91.042 47.4343C91.042 39.222 95.2693 35.333 102.041 35.333H109.05H109.054ZM102.525 55.0201H113.235V46.1352C113.235 42.004 111.652 40.2287 107.571 40.2287H102.529C98.1599 40.2287 96.1925 42.4384 96.1925 47.6223C96.1925 52.8062 98.1599 55.0159 102.529 55.0159L102.525 55.0201Z" fill="#326BFC"/>
<path d="M139.309 35.333C145.646 35.333 148.144 38.8878 148.144 43.6874V55.5966C148.144 59.2474 147.183 60.6886 142.91 60.6886H131.051C125.048 60.6886 122.55 57.7604 122.55 52.9566C122.55 48.1528 124.856 45.659 131.097 45.659H143.148V43.7375C143.148 41.7701 142.045 40.2329 139.259 40.2329H124.083V35.333H139.305H139.309ZM143.152 54.4437V49.69H131.197C128.507 49.69 127.546 50.7928 127.546 52.6684C127.546 54.5439 128.553 55.7428 131.101 55.7428H141.761C142.772 55.7428 143.152 55.3585 143.152 54.4478V54.4437Z" fill="#326BFC"/>
<path d="M170.329 35.333C174.748 35.333 176.858 37.6388 176.858 41.1435C176.858 44.2638 175.179 46.2814 172.535 47.2422L157.985 52.5263C157.121 52.8605 156.64 53.437 156.64 54.2557C156.64 55.2164 157.263 55.7929 158.562 55.7929H176.332V60.6927H158.274C153.904 60.6927 151.745 58.3869 151.745 54.8823C151.745 52.0501 153.136 49.7903 156.068 48.7376L170.667 43.5036C171.724 43.1193 172.012 42.4008 172.012 41.7283C172.012 40.7675 171.39 40.2412 170.045 40.2412H152.659V35.3414H170.329V35.333Z" fill="#326BFC"/>
<path d="M196.453 35.333C202.456 35.333 205 38.2153 205 43.1109C205 48.0066 202.648 50.4085 196.403 50.4085H184.352V52.2339C184.352 54.2515 185.455 55.7386 188.241 55.7386H203.751V60.6844H188.241C181.904 60.6844 179.406 57.1296 179.406 52.33V43.6874C179.406 38.8836 181.904 35.333 188.241 35.333H196.453ZM184.352 46.4276H196.261C198.997 46.4276 200.008 45.2747 200.008 43.4033C200.008 41.532 198.905 40.2329 196.407 40.2329H188.245C185.459 40.2329 184.356 41.7701 184.356 43.7375V46.4276H184.352Z" fill="#326BFC"/>
<path d="M166.73 15.7824C167.093 16.6936 167.017 17.8132 166.435 19.1618C165.851 20.512 164.779 22.0433 163.235 23.7264C160.149 27.0909 155.258 30.9774 148.914 35.1379C136.232 43.4544 117.838 52.8077 96.7378 61.2182C75.6374 69.6287 55.8525 75.4934 40.9276 78.1806C33.461 79.5249 27.2371 80.069 22.6828 79.7499C20.4044 79.5903 18.5729 79.2164 17.2207 78.6377C15.8701 78.0598 15.0447 77.2995 14.6815 76.3883C14.3183 75.4771 14.3944 74.3575 14.977 73.0089C15.5604 71.6587 16.6325 70.1275 18.1764 68.4443C21.2625 65.0798 26.1541 61.1933 32.4982 57.0328C45.1793 48.7163 63.5737 39.363 84.674 30.9525C105.774 22.542 125.559 16.6773 140.484 13.9902C147.951 12.6459 154.175 12.1018 158.729 12.4208C161.007 12.5804 162.839 12.9543 164.191 13.533C165.542 14.111 166.367 14.8712 166.73 15.7824Z" stroke="white"/>
<path d="M213 27L215.161 32.8393L221 35L215.161 37.1607L213 43L210.839 37.1607L205 35L210.839 32.8393L213 27Z" fill="#D9D9D9"/>
</svg>
